<svg width="40" height="40" viewBox="0 0 40 40" fill="none" xmlns="http://www.w3.org/2000/svg">
<path fill-rule="evenodd" clip-rule="evenodd" d="M16.7174 12.6685C13.9942 12.2053 11.2664 13.7396 10.7489 16.1684L6.99379 33.7916C6.86122 34.4138 7.33567 35 7.97184 35H32.0297C32.6659 35 33.1404 34.4138 33.0078 33.7916L29.2527 16.1684C28.7351 13.7396 26.0074 12.2053 23.2842 12.6685C22.2378 12.8465 21.1201 12.966 20.0008 12.966C18.8815 12.966 17.7638 12.8465 16.7174 12.6685ZM8.7928 15.7516C9.58965 12.0119 13.5582 10.1024 17.0528 10.6968C18.017 10.8609 19.0196 10.966 20.0008 10.966C20.9819 10.966 21.9845 10.8609 22.9488 10.6968C26.4434 10.1024 30.4119 12.0119 31.2088 15.7516L34.9639 33.3748C35.3616 35.2414 33.9382 37 32.0297 37H7.97184C6.06333 37 4.63997 35.2414 5.03771 33.3748L8.7928 15.7516Z" fill="white"/>
<path fill-rule="evenodd" clip-rule="evenodd" d="M14.5 8.5C14.5 5.46243 16.9624 3 20 3C23.0376 3 25.5 5.46243 25.5 8.5V20C25.5 20.5523 25.0523 21 24.5 21C23.9477 21 23.5 20.5523 23.5 20V8.5C23.5 6.567 21.933 5 20 5C18.067 5 16.5 6.567 16.5 8.5V20C16.5 20.5523 16.0523 21 15.5 21C14.9477 21 14.5 20.5523 14.5 20V8.5Z" fill="white"/>
</svg>
