<svg width="40" height="40" viewBox="0 0 40 40" fill="none" xmlns="http://www.w3.org/2000/svg">
<path fill-rule="evenodd" clip-rule="evenodd" d="M16.7154 12.6685C13.9922 12.2053 11.2645 13.7396 10.7469 16.1684L6.99184 33.7916C6.85926 34.4138 7.33371 35 7.96989 35H32.0278C32.664 35 33.1384 34.4138 33.0058 33.7916L29.2507 16.1684C28.7332 13.7396 26.0054 12.2053 23.2822 12.6685C22.2358 12.8465 21.1181 12.966 19.9988 12.966C18.8796 12.966 17.7618 12.8465 16.7154 12.6685ZM8.79085 15.7516C9.58769 12.0119 13.5563 10.1024 17.0508 10.6968C18.0151 10.8609 19.0177 10.966 19.9988 10.966C20.98 10.966 21.9826 10.8609 22.9469 10.6968C26.4414 10.1024 30.41 12.0119 31.2068 15.7516L34.9619 33.3748C35.3596 35.2414 33.9363 37 32.0278 37H7.96989C6.06137 37 4.63802 35.2414 5.03575 33.3748L8.79085 15.7516Z" fill="#003A40"/>
<path fill-rule="evenodd" clip-rule="evenodd" d="M14.5 8.5C14.5 5.46243 16.9624 3 20 3C23.0376 3 25.5 5.46243 25.5 8.5V20C25.5 20.5523 25.0523 21 24.5 21C23.9477 21 23.5 20.5523 23.5 20V8.5C23.5 6.567 21.933 5 20 5C18.067 5 16.5 6.567 16.5 8.5V20C16.5 20.5523 16.0523 21 15.5 21C14.9477 21 14.5 20.5523 14.5 20V8.5Z" fill="#003A40"/>
</svg>
