<svg width="40" height="40" viewBox="0 0 40 40" fill="none" xmlns="http://www.w3.org/2000/svg">
<path fill-rule="evenodd" clip-rule="evenodd" d="M20 5C22.7614 5 25 7.23858 25 10C25 12.7614 22.7614 15 20 15C17.2386 15 15 12.7614 15 10C15 7.23858 17.2386 5 20 5ZM27 10C27 6.13401 23.866 3 20 3C16.134 3 13 6.13401 13 10C13 13.866 16.134 17 20 17C23.866 17 27 13.866 27 10Z" fill="#003A40"/>
<path fill-rule="evenodd" clip-rule="evenodd" d="M14.6415 21.1018C12.4898 20.4299 10.1389 21.5613 9.65932 23.4797L7.08993 33.7572C6.93214 34.3884 7.4095 34.9998 8.06007 34.9998H31.937C32.5875 34.9998 33.0649 34.3884 32.9071 33.7572L30.3377 23.4797C29.8581 21.5613 27.5072 20.4299 25.3555 21.1018C23.7545 21.6017 21.8908 21.9998 19.9985 21.9998C18.1062 21.9998 16.2425 21.6017 14.6415 21.1018ZM7.71904 22.9946C8.54239 19.7012 12.2614 18.2633 15.2377 19.1927C16.7191 19.6553 18.3731 19.9998 19.9985 19.9998C21.6239 19.9998 23.2779 19.6553 24.7593 19.1927C27.7356 18.2633 31.4546 19.7012 32.278 22.9946L34.8474 33.2722C35.3208 35.1656 33.8887 36.9998 31.937 36.9998H8.06007C6.10836 36.9998 4.67628 35.1656 5.14964 33.2722L7.71904 22.9946Z" fill="#003A40"/>
</svg>
