<svg width="40" height="40" viewBox="0 0 40 40" fill="none" xmlns="http://www.w3.org/2000/svg">
<path fill-rule="evenodd" clip-rule="evenodd" d="M20 5C22.7614 5 25 7.23858 25 10C25 12.7614 22.7614 15 20 15C17.2386 15 15 12.7614 15 10C15 7.23858 17.2386 5 20 5ZM27 10C27 6.13401 23.866 3 20 3C16.134 3 13 6.13401 13 10C13 13.866 16.134 17 20 17C23.866 17 27 13.866 27 10Z" fill="white"/>
<path fill-rule="evenodd" clip-rule="evenodd" d="M14.6435 21.1018C12.4918 20.4299 10.1409 21.5613 9.66127 23.4797L7.09188 33.7572C6.9341 34.3884 7.41145 34.9998 8.06202 34.9998H31.9389C32.5895 34.9998 33.0668 34.3884 32.9091 33.7572L30.3397 23.4797C29.8601 21.5613 27.5092 20.4299 25.3575 21.1018C23.7565 21.6017 21.8928 21.9998 20.0005 21.9998C18.1082 21.9998 16.2445 21.6017 14.6435 21.1018ZM7.72099 22.9946C8.54434 19.7012 12.2634 18.2633 15.2396 19.1927C16.7211 19.6553 18.3751 19.9998 20.0005 19.9998C21.6259 19.9998 23.2799 19.6553 24.7613 19.1927C27.7376 18.2633 31.4566 19.7012 32.28 22.9946L34.8493 33.2722C35.3227 35.1656 33.8906 36.9998 31.9389 36.9998H8.06202C6.11031 36.9998 4.67824 35.1656 5.1516 33.2722L7.72099 22.9946Z" fill="white"/>
</svg>
