<svg width="310" height="91" viewBox="0 0 310 91" fill="none" xmlns="http://www.w3.org/2000/svg">
<g clip-path="url(#clip0_4_61)">
<path d="M20.52 88.39V89.74H1.26V88.39C6.04 87.04 6.29 86.31 6.29 80.08V10.51C6.29 6.23 5.16 4.64 0 4.15V2.8L15.36 0V80.07C15.36 86.79 15.99 87.28 20.52 88.38M58.15 88.5V89.72H38.89V88.5C43.67 87.15 43.93 86.3 43.93 80.07V52.69C43.93 42.91 39.15 36.92 29.58 36.92C26.18 36.92 23.16 38.51 20.77 40.59L19.64 39C23.29 35.09 28.95 32.16 34.36 32.16C44.81 32.16 52.99 37.54 52.99 52.21V80.08C52.99 86.8 53.75 87.41 58.15 88.51" fill="#003A40"/>
<path d="M94.3401 89.7299H75.0801V88.3799C79.8601 87.0299 80.1201 86.4199 80.1201 80.1899V42.7799C80.1201 38.6199 79.1101 36.9099 73.8301 36.1799V34.9599L89.1901 32.1499V80.1899C89.1901 86.9099 89.8201 87.2799 94.3501 88.3799V89.7299H94.3401ZM78.3601 16.6199C78.3601 13.6899 80.6301 11.3599 83.6501 11.3599C86.6701 11.3599 89.0601 13.6799 89.0601 16.6199C89.0601 19.5599 86.5401 21.7499 83.6501 21.7499C80.7601 21.7499 78.3601 19.4299 78.3601 16.6199Z" fill="#003A40"/>
<path d="M130.86 88.3902V89.7402H111.6V88.3902C116.38 87.0402 116.63 86.4302 116.63 80.2002V42.9102C116.63 38.6302 115.5 36.9202 110.34 36.1902V34.9702L125.7 32.1602V80.2002C125.7 86.9202 126.45 87.2902 130.86 88.3902Z" fill="#003A40"/>
<path d="M205.82 89.2401V90.7101C189.08 89.1201 180.27 76.5301 180.27 61.4901C180.27 46.4501 189.08 33.9801 205.82 32.3901V33.8601C197.51 35.2101 190.84 42.0501 190.84 61.4901C190.84 80.9301 197.51 87.9001 205.82 89.2401ZM212.99 90.7101V89.2401C221.3 87.8901 227.72 80.9301 227.72 61.4901C227.72 42.0501 221.3 35.2101 212.99 33.8601V32.3901C229.73 33.9801 238.41 46.4501 238.41 61.4901C238.41 76.5301 229.72 89.1201 212.99 90.7101Z" fill="#003A40"/>
<path d="M269.55 89.73H250.17V88.38C254.95 87.03 255.2 86.42 255.2 80.19V10.51C255.2 6.23 254.19 4.52 248.91 4.03V2.68L264.39 0V80.19C264.39 86.91 265.02 87.28 269.55 88.38V89.73ZM309.58 89.73H300.14C291.46 89.73 288.43 87.41 278.99 75.31C277.98 73.96 268.17 62.72 268.17 62.72L280 50.98C280 50.98 299.13 34.35 282.01 34.48V33.26H309.32V34.48C301.64 34.6 298.37 36.8 276.22 59.3C280.88 65.66 298.75 84.11 298.75 84.11C302.27 88.02 306.3 88.39 309.58 88.39V89.74V89.73Z" fill="#003A40"/>
<path d="M168.491 88.5099V89.7299H149.231V88.5099C154.011 87.1599 154.261 86.3099 154.261 80.0799V52.6999C154.261 42.9199 149.481 36.9299 139.911 36.9299C136.511 36.9299 133.491 38.5199 131.101 40.5999L129.971 39.0099C133.621 35.0999 139.281 32.1699 144.691 32.1699C155.141 32.1699 163.321 37.5499 163.321 52.2199V80.0899C163.321 86.8099 164.081 87.4199 168.481 88.5199" fill="#003A40"/>
</g>
<defs>
<clipPath id="clip0_4_61">
<rect width="310" height="91" fill="white"/>
</clipPath>
</defs>
</svg>
