<svg width="40" height="40" viewBox="0 0 40 40" fill="none" xmlns="http://www.w3.org/2000/svg">
<path fill-rule="evenodd" clip-rule="evenodd" d="M26.4805 26.4784C26.8711 26.0879 27.5042 26.0879 27.8948 26.4784L34.9658 33.5495C35.3563 33.94 35.3563 34.5732 34.9658 34.9637C34.5753 35.3542 33.9421 35.3542 33.5516 34.9637L26.4805 27.8927C26.09 27.5021 26.09 26.869 26.4805 26.4784Z" fill="#003A40"/>
<path fill-rule="evenodd" clip-rule="evenodd" d="M17 7C11.4772 7 7 11.4772 7 17C7 22.5228 11.4772 27 17 27C22.5228 27 27 22.5228 27 17C27 11.4772 22.5228 7 17 7ZM5 17C5 10.3726 10.3726 5 17 5C23.6274 5 29 10.3726 29 17C29 23.6274 23.6274 29 17 29C10.3726 29 5 23.6274 5 17Z" fill="#003A40"/>
</svg>
